<svg width="282" height="85" viewBox="0 0 282 85" fill="none" xmlns="http://www.w3.org/2000/svg">
<path d="M105.014 84.9998V80.9391H98.5377V84.9998H97.0439V76.064H98.5377V79.6179H105.014V76.064H106.508V84.9998H105.014Z" fill="#3F4191"/>
<path d="M121.652 84.9998C119.851 84.9998 119.166 84.1262 119.166 82.8427V78.2211C119.166 76.9377 119.851 76.064 121.652 76.064H126.883C128.684 76.064 129.369 76.9377 129.369 78.2211V82.8427C129.369 84.1262 128.684 84.9998 126.883 84.9998H121.652ZM127.876 78.2103C127.876 77.6765 127.563 77.3852 126.883 77.3852H121.652C120.978 77.3852 120.66 77.6765 120.66 78.2103V82.8535C120.66 83.3874 120.973 83.6786 121.652 83.6786H126.883C127.557 83.6786 127.876 83.3874 127.876 82.8535V78.2103Z" fill="#3F4191"/>
<path d="M142.014 84.9998V76.064H143.524V83.6786H149.947V84.9998H142.014Z" fill="#3F4191"/>
<path d="M162.237 84.9998V76.064H169.49C171.728 76.064 172.413 76.9377 172.413 78.7011V82.4436C172.413 84.1208 171.728 84.9944 169.49 84.9944H162.237V84.9998ZM170.919 78.7065C170.919 77.6765 170.607 77.3852 169.49 77.3852H163.731V83.6786H169.49C170.607 83.6786 170.919 83.3874 170.919 82.4329V78.7011V78.7065Z" fill="#3F4191"/>
<path d="M186.619 84.9944V78.8791L185.119 78.2427V84.989H186.619V84.9944ZM186.619 76.064H185.119V78.2481L186.619 77.5039V76.064Z" fill="#3F4191"/>
<path d="M209.139 84.9998L200.688 78.0432V84.9998H199.383V76.064H200.677L208.562 82.7025V76.064H209.867V84.9998H209.133H209.139Z" fill="#3F4191"/>
<path d="M82.7428 45.509C82.5971 44.932 82.3491 44.4143 82.0579 43.9505C81.373 42.8558 80.44 41.8743 79.2644 41.1247C78.1373 40.3751 76.8161 39.7388 75.3493 39.3397C73.8825 38.8759 72.3617 38.5901 70.7924 38.3043C69.2717 38.0724 67.7563 37.9592 66.2895 37.8998C64.8226 37.8405 63.496 37.7866 62.3204 37.7866C58.4053 37.7866 55.3152 37.5008 53.0665 36.9237C50.8123 36.3467 49.7337 35.3652 49.7337 34.0386C49.7337 33.5748 49.8793 33.1165 50.2245 32.5394C50.5696 32.0217 51.2545 31.504 52.2791 31.0403C53.3091 30.5765 54.7274 30.2313 56.5879 29.8862C58.4484 29.6004 60.8967 29.4278 63.8843 29.4278C65.7448 29.4278 67.5082 29.6004 69.2231 29.8862C70.8895 30.1181 72.4049 30.4632 73.8285 30.8677C75.2468 31.2721 76.471 31.7305 77.501 32.1943C78.5795 32.5988 79.3615 33.0032 79.9493 33.3483C80.2945 33.4077 80.3915 33.289 80.343 33.1165L79.8522 26.1976C79.8522 26.025 79.8037 25.9657 79.7066 25.9657C79.464 25.8524 78.8762 25.6205 78.0403 25.3293C77.1613 24.9842 76.0342 24.6391 74.659 24.2939C73.2893 23.9488 71.6714 23.6576 69.8595 23.3718C68.0475 23.1399 66.0899 23.0266 63.8843 23.0266C61.4845 23.0266 59.0362 23.1399 56.5394 23.4904C54.0911 23.8355 51.8369 24.4126 49.8793 25.2215C47.8732 26.0304 46.2554 27.1844 44.9827 28.6243C43.71 30.0642 43.0737 31.8546 43.0737 34.044C43.0737 34.5078 43.1222 35.0794 43.2193 35.7751C43.3164 36.4114 43.5644 37.161 43.9527 37.9106C44.3464 38.6602 44.9827 39.4691 45.8132 40.1594C46.5952 40.909 47.7222 41.5993 49.1459 42.2356C50.5642 42.8126 52.3762 43.3303 54.4848 43.6755C56.6419 44.0799 59.2358 44.2579 62.3204 44.2525C64.7687 44.2525 66.8719 44.3657 68.5868 44.5383C70.3502 44.7109 71.7685 44.9428 72.8956 45.2879C74.0227 45.633 74.8046 45.9782 75.3439 46.4419C75.8346 46.8464 76.0773 47.3048 76.0773 47.7686C76.0773 49.0359 75.0473 50.0767 72.9441 50.8802C72.1622 51.166 71.3263 51.3979 70.4958 51.5866C69.8109 51.7322 69.0829 51.9048 68.3064 52.0396C67.6269 52.1798 66.8503 52.2931 66.0792 52.4171C59.2951 52.7515 52.3169 51.7808 45.6514 50.0713V56.6558C46.552 56.85 47.4472 57.0603 48.3478 57.2113C52.9856 57.8099 57.2135 58.2898 61.4306 58.2467C65.5129 58.1712 69.7408 58.306 73.7261 57.3515C76.6651 56.7043 80.5317 54.9409 82.1064 51.6891C82.5001 50.8802 82.7913 50.1899 82.9369 49.4996C83.034 48.8094 83.131 48.3456 83.131 48.0004C83.131 47.1376 82.9854 46.2694 82.7374 45.5198L82.7428 45.509Z" fill="white"/>
<path d="M72.2321 57.8368C72.1836 57.8368 72.0865 57.9015 71.9894 57.9015C71.9894 57.9015 71.9895 57.8368 71.9409 57.8422H72.2321V57.8368Z" fill="white"/>
<path d="M86.2437 24.3045C86.2437 23.9648 86.4324 23.7922 86.8207 23.7922H119.021C119.183 23.7922 119.296 23.8677 119.361 24.0241L121.237 29.762C121.302 29.886 121.291 29.9939 121.216 30.0909C121.135 30.1826 121.027 30.2311 120.903 30.2311H93.4107C93.0547 30.2311 92.8822 30.4037 92.8822 30.7434V37.1392C92.8822 37.3873 92.9954 37.5113 93.2165 37.5113H113.79C113.919 37.5113 114.016 37.5599 114.081 37.6516C114.146 37.7432 114.162 37.8349 114.13 37.932L112.253 43.6699C112.188 43.8586 112.064 43.9503 111.87 43.9503H93.2219C93.0008 43.9503 92.8876 44.0581 92.8876 44.2792V50.675C92.8876 50.8314 92.9361 50.9663 93.0331 51.0741C93.1302 51.182 93.2596 51.2359 93.416 51.2359H120.908C121.038 51.2359 121.14 51.2844 121.221 51.3761C121.302 51.4678 121.307 51.5595 121.243 51.6565L119.366 57.3944C119.301 57.5508 119.188 57.6263 119.026 57.6263H86.8261C86.4432 57.6263 86.2491 57.4537 86.2491 57.1086V24.2991L86.2437 24.3045Z" fill="white"/>
<path d="M125.783 23.7925H130.636C130.825 23.7925 130.938 23.8356 130.976 23.9327L155.777 47.3156C155.81 47.348 155.858 47.3588 155.923 47.3588C156.02 47.3588 156.069 47.3156 156.069 47.2186L156.02 24.2077C156.02 23.9003 156.182 23.7385 156.5 23.7385H162.173C162.491 23.7385 162.653 23.8949 162.653 24.2077L162.702 57.2491C162.702 57.5942 162.524 57.7614 162.173 57.7614H157.557C157.395 57.7614 157.282 57.7182 157.217 57.6212L132.179 34.0063C132.114 33.947 132.06 33.9254 132.012 33.9578C131.963 33.9901 131.941 34.0387 131.941 34.098V57.2922C131.941 57.5996 131.763 57.756 131.413 57.756H125.788C125.47 57.756 125.308 57.5996 125.308 57.2922V24.2508C125.308 23.9381 125.47 23.7817 125.788 23.7817L125.783 23.7925Z" fill="white"/>
<path d="M167.431 23.7439H192.567C194.681 23.7439 196.455 24.0351 197.879 24.6068C199.303 25.1838 200.451 25.9118 201.314 26.8016C202.182 27.686 202.797 28.6783 203.164 29.7676C203.53 30.857 203.714 31.9139 203.714 32.9386C203.714 33.9039 203.579 34.8044 203.304 35.6457C203.029 36.487 202.662 37.2258 202.198 37.8621C201.735 38.4985 201.19 39 200.564 39.3559C199.939 39.7118 199.259 39.8952 198.521 39.8952V39.9869C199.286 39.9869 200.138 40.1109 201.066 40.359C201.993 40.607 202.862 41.0223 203.66 41.5993C204.463 42.1709 205.132 42.9583 205.677 43.9559C206.221 44.9536 206.496 46.1993 206.496 47.6877C206.496 48.5937 206.308 49.6237 205.919 50.7939C205.537 51.9588 204.9 53.0589 204.021 54.0835C203.137 55.1081 201.961 55.9818 200.489 56.6936C199.011 57.4108 197.172 57.7668 194.961 57.7668H167.421C167.129 57.7668 166.989 57.6266 166.989 57.3461V24.1592C166.989 23.8787 167.135 23.7385 167.421 23.7385L167.431 23.7439ZM174.064 37.091H193.241C194.584 37.091 195.603 36.8267 196.293 36.2982C196.984 35.7697 197.329 34.853 197.329 33.5425C197.329 32.5449 197 31.736 196.342 31.1158C195.684 30.4956 194.654 30.1829 193.241 30.1829H174.064C173.773 30.1829 173.633 30.3231 173.633 30.6035V36.7189C173.633 36.9669 173.779 37.091 174.064 37.091ZM173.633 50.9018C173.633 51.1822 173.779 51.3224 174.064 51.3224H194.347C195.592 51.3224 196.59 51.1768 197.323 50.8802C198.062 50.5836 198.612 50.2439 198.979 49.8502C199.346 49.4619 199.588 49.0575 199.702 48.6368C199.815 48.2162 199.869 47.898 199.869 47.6823C199.869 46.593 199.389 45.6385 198.429 44.8134C197.469 43.9883 196.04 43.5731 194.152 43.5731H174.064C173.773 43.5731 173.633 43.6971 173.633 43.9452V50.9018Z" fill="white"/>
<path d="M206 57.2542L223.16 23.927C223.289 23.803 223.397 23.7437 223.494 23.7437H230.704C230.866 23.7437 230.979 23.803 231.044 23.927L248.252 57.2542C248.317 57.3783 248.306 57.5023 248.231 57.6263C248.15 57.7504 248.047 57.8097 247.918 57.8097H241.333C241.171 57.8097 241.058 57.7342 240.993 57.5778L238.108 51.9801C238.044 51.8561 237.93 51.7914 237.769 51.7914H216.43C216.3 51.7914 216.203 51.8561 216.138 51.9801L213.253 57.5778C213.156 57.7342 213.043 57.8097 212.913 57.8097H206.329C206.167 57.8097 206.054 57.7504 205.989 57.6263C205.924 57.5023 205.924 57.3783 205.989 57.2542H206ZM216.591 51.8237L234.306 45.3524C234.404 45.3524 234.474 45.3147 234.522 45.2392C234.571 45.1637 234.565 45.0936 234.501 45.0289L227.242 30.9322C227.177 30.7758 227.096 30.7758 227.005 30.9322L216.403 51.5001C216.338 51.7213 216.403 51.8291 216.591 51.8291V51.8237Z" fill="white"/>
<path d="M235.746 23.7437H244.013C244.078 23.7437 244.143 23.776 244.202 23.8354L258.142 38.6816C258.175 38.7139 258.255 38.7247 258.385 38.7247C258.514 38.7247 258.595 38.7086 258.622 38.6816L272.514 23.8354C272.579 23.776 272.659 23.7437 272.757 23.7437H281.024C281.185 23.7437 281.288 23.803 281.336 23.927C281.385 24.0511 281.358 24.1589 281.266 24.256L261.755 44.0905C261.723 44.1498 261.707 44.2307 261.707 44.3224V57.4376C261.707 57.6587 261.594 57.7665 261.367 57.7665H255.408C255.182 57.7665 255.068 57.6587 255.068 57.4376V44.3224C255.068 44.29 255.036 44.2145 254.971 44.0905L235.503 24.256C235.406 24.1589 235.385 24.0511 235.433 23.927C235.482 23.803 235.584 23.7437 235.746 23.7437Z" fill="white"/>
<path d="M74.2507 66.0175L50.4794 66.039L70.3086 60.4521L74.2507 66.0175Z" fill="white"/>
<path d="M231.669 80.1248V83.0962C231.669 84.3581 230.725 84.9998 228.843 84.9998H225.343C223.461 84.9998 222.518 84.3473 222.518 83.0746V78C222.518 76.7166 223.456 76.064 225.343 76.064H231.534V77.3852H225.343C224.454 77.3852 224.011 77.5902 224.011 78V83.0746C224.011 83.4791 224.454 83.684 225.343 83.684H228.843C229.728 83.684 230.17 83.4952 230.17 83.1016V81.4514H227.619V80.1302H231.669V80.1248Z" fill="#3F4191"/>
<path d="M94.0457 3.61814C93.5927 3.65589 93.1451 3.67747 92.6975 3.70982C93.199 3.67207 93.6574 3.63971 94.0457 3.61814Z" fill="#3F4191"/>
<path d="M86.2265 4.20545C85.9569 4.22163 85.6819 4.24859 85.4014 4.27555C84.3498 4.35644 83.3037 4.44273 82.2575 4.53441C83.5787 4.41038 84.8945 4.30791 86.2211 4.21084L86.2265 4.20545Z" fill="#3F4191"/>
<path d="M94.8936 3.56437L88.5679 4.01735C88.8538 3.99039 89.1396 3.97421 89.4092 3.94725C89.6627 3.93107 89.9107 3.9095 90.1642 3.89332C90.8383 3.84479 91.4585 3.79625 92.0247 3.7585C92.0786 3.75311 92.1272 3.74772 92.1757 3.74772C92.3537 3.73693 92.5316 3.72076 92.6988 3.70997C93.2003 3.67222 93.6587 3.63986 94.047 3.61829C94.1764 3.6129 94.3004 3.60212 94.4137 3.59133C94.5862 3.58055 94.7426 3.56436 94.8936 3.55897V3.56437Z" fill="#3F4191"/>
<path d="M56.901 7.3934C55.6714 7.57675 54.4527 7.7655 53.2285 7.97582C55.2562 7.6199 56.5882 7.43654 56.901 7.3934Z" fill="#3F4191"/>
<path d="M278.036 5.13353C266.469 4.46482 254.885 3.90398 243.302 3.42941C226.25 2.72296 209.193 2.19986 192.135 1.90866C172.732 1.5797 153.324 1.52577 133.931 1.9518C121.21 2.22683 108.478 2.6906 95.7723 3.5103C95.7561 3.5103 95.7291 3.51031 95.6968 3.5157L95.4757 3.52648C95.4055 3.53187 95.3462 3.53727 95.2815 3.53727L94.8936 3.56437C94.748 3.56976 94.5858 3.58041 94.4133 3.59659C94.2946 3.60198 94.176 3.61277 94.0466 3.62355C93.6529 3.65052 93.1999 3.67748 92.6984 3.71523C92.5312 3.72602 92.3533 3.74219 92.1753 3.75297C92.1268 3.75297 92.0782 3.75837 92.0243 3.76376C91.4581 3.80151 90.8379 3.85005 90.1638 3.89858C89.9103 3.91476 89.6623 3.93633 89.4088 3.95251C89.1392 3.97948 88.8588 3.99565 88.5675 4.02261C88.492 4.02801 88.4165 4.03341 88.3357 4.0388C88.2332 4.04419 88.1253 4.04958 88.0229 4.06576L87.7856 4.08193C87.4836 4.1089 87.1762 4.13047 86.858 4.15743C86.7232 4.16282 86.583 4.17361 86.4482 4.19518C86.3727 4.20058 86.308 4.20597 86.2325 4.21136C85.9629 4.22754 85.6878 4.25451 85.4074 4.28147C75.571 5.11735 60.3419 6.69202 46.7791 9.24819C46.7683 9.25358 46.7468 9.25898 46.7306 9.25898C33.761 12.1063 13.0421 18.4806 12.6916 30.1235V30.1936C12.6916 30.7814 12.7347 31.3962 12.8156 32.0325C13.5382 35.6942 17.6151 44.0098 38.9974 49.985C39.1322 50.0174 39.267 50.0389 39.4018 50.0605C39.4018 50.0605 31.9652 51.3979 23.0456 50.1198C22.9647 50.1036 22.8785 50.0875 22.7976 50.0821C21.6273 49.9095 20.4355 49.6884 19.233 49.4188C19.206 49.4134 19.1844 49.408 19.1521 49.4026C12.2493 47.6553 0.83289 42.5268 0.0401553 31.7737C-0.865827 19.3272 13.8456 13.131 15.1884 12.5917C15.1884 12.5917 15.1992 12.5863 15.2315 12.5755C16.2022 12.1387 34.9367 4.01722 79.5724 2.34547H79.6102C81.2496 2.23761 82.8836 2.13515 84.523 2.03808C91.2262 1.64441 97.9348 1.35321 104.649 1.12132C111.595 0.884038 118.557 0.722257 125.513 0.625187C132.578 0.528118 139.648 0.484973 146.712 0.495758C153.75 0.501151 160.798 0.565868 167.841 0.66833C168.903 0.679116 169.966 0.700685 171.023 0.716863H171.077C176.885 0.80854 182.687 0.932572 188.495 1.07818C195.08 1.24535 201.675 1.44488 208.26 1.67137C214.418 1.88708 220.577 2.12437 226.735 2.38322C232.327 2.6205 237.92 2.87935 243.512 3.16517C248.403 3.40245 253.295 3.6667 258.186 3.93633C262.241 4.16283 266.296 4.4055 270.352 4.65357C272.919 4.80457 275.486 4.97174 278.042 5.13892L278.036 5.13353Z" fill="#3F4191"/>
<path d="M74.2507 66.0175L50.4794 66.039L70.3086 60.4521L74.2507 66.0175Z" fill="white"/>
</svg>
