<svg width="282" height="85" viewBox="0 0 282 85" fill="none" xmlns="http://www.w3.org/2000/svg">
<path d="M105.014 84.9998V80.9391H98.5372V84.9998H97.0434V76.064H98.5372V79.6179H105.014V76.064H106.508V84.9998H105.014Z" fill="#3F4191"/>
<path d="M121.652 84.9998C119.851 84.9998 119.166 84.1262 119.166 82.8427V78.2211C119.166 76.9377 119.851 76.064 121.652 76.064H126.883C128.684 76.064 129.369 76.9377 129.369 78.2211V82.8427C129.369 84.1262 128.684 84.9998 126.883 84.9998H121.652ZM127.875 78.2103C127.875 77.6765 127.562 77.3852 126.883 77.3852H121.652C120.978 77.3852 120.66 77.6765 120.66 78.2103V82.8535C120.66 83.3874 120.972 83.6786 121.652 83.6786H126.883C127.557 83.6786 127.875 83.3874 127.875 82.8535V78.2103Z" fill="#3F4191"/>
<path d="M142.014 84.9998V76.064H143.524V83.6786H149.946V84.9998H142.014Z" fill="#3F4191"/>
<path d="M162.236 84.9998V76.064H169.49C171.728 76.064 172.413 76.9377 172.413 78.7011V82.4436C172.413 84.1208 171.728 84.9944 169.49 84.9944H162.236V84.9998ZM170.919 78.7065C170.919 77.6765 170.606 77.3852 169.49 77.3852H163.73V83.6786H169.49C170.606 83.6786 170.919 83.3874 170.919 82.4329V78.7011V78.7065Z" fill="#3F4191"/>
<path d="M186.618 84.9944V78.8791L185.119 78.2427V84.989H186.618V84.9944ZM186.618 76.064H185.119V78.2481L186.618 77.5039V76.064Z" fill="#3F4191"/>
<path d="M209.138 84.9998L200.688 78.0432V84.9998H199.383V76.064H200.677L208.561 82.7025V76.064H209.866V84.9998H209.133H209.138Z" fill="#3F4191"/>
<path d="M82.7423 45.509C82.5967 44.932 82.3486 44.4143 82.0574 43.9505C81.3725 42.8558 80.4396 41.8743 79.2639 41.1247C78.1369 40.3751 76.8156 39.7388 75.3488 39.3397C73.882 38.8759 72.3612 38.5901 70.7919 38.3043C69.2712 38.0724 67.7558 37.9591 66.289 37.8998C64.8222 37.8405 63.4956 37.7866 62.3199 37.7866C58.4048 37.7866 55.3147 37.5008 53.066 36.9237C50.8118 36.3467 49.7332 35.3652 49.7332 34.0386C49.7332 33.5748 49.8788 33.1165 50.224 32.5394C50.5691 32.0217 51.254 31.504 52.2786 31.0403C53.3086 30.5765 54.7269 30.2313 56.5874 29.8862C58.4479 29.6004 60.8962 29.4278 63.8838 29.4278C65.7443 29.4278 67.5077 29.6004 69.2226 29.8862C70.889 30.1181 72.4044 30.4632 73.8281 30.8677C75.2464 31.2721 76.4705 31.7305 77.5005 32.1943C78.5791 32.5988 79.361 33.0032 79.9488 33.3483C80.294 33.4077 80.391 33.289 80.3425 33.1165L79.8517 26.1976C79.8517 26.025 79.8032 25.9657 79.7061 25.9657C79.4635 25.8524 78.8757 25.6205 78.0398 25.3293C77.1608 24.9842 76.0337 24.6391 74.6585 24.2939C73.2888 23.9488 71.6709 23.6576 69.859 23.3718C68.047 23.1399 66.0895 23.0266 63.8838 23.0266C61.4841 23.0266 59.0357 23.1399 56.5389 23.4904C54.0906 23.8355 51.8364 24.4126 49.8789 25.2215C47.8727 26.0304 46.2549 27.1844 44.9822 28.6243C43.7095 30.0642 43.0732 31.8546 43.0732 34.044C43.0732 34.5078 43.1217 35.0794 43.2188 35.7751C43.3159 36.4114 43.5639 37.161 43.9522 37.9106C44.3459 38.6602 44.9822 39.4691 45.8127 40.1594C46.5947 40.909 47.7217 41.5993 49.1454 42.2356C50.5637 42.8126 52.3757 43.3303 54.4843 43.6755C56.6414 44.0799 59.2353 44.2579 62.3199 44.2525C64.7682 44.2525 66.8714 44.3657 68.5863 44.5383C70.3497 44.7109 71.768 44.9428 72.8951 45.2879C74.0222 45.633 74.8041 45.9782 75.3434 46.4419C75.8342 46.8464 76.0768 47.3048 76.0768 47.7686C76.0768 49.0359 75.0468 50.0767 72.9436 50.8802C72.1617 51.166 71.3258 51.3979 70.4953 51.5866C69.8104 51.7322 69.0824 51.9048 68.3059 52.0396C67.6264 52.1798 66.8498 52.2931 66.0787 52.4171C59.2946 52.7515 52.3164 51.7808 45.6509 50.0713V56.6558C46.5515 56.85 47.4467 57.0603 48.3473 57.2113C52.9851 57.8099 57.213 58.2898 61.4301 58.2467C65.5124 58.1712 69.7403 58.306 73.7256 57.3515C76.6646 56.7043 80.5312 54.9409 82.1059 51.6891C82.4996 50.8802 82.7908 50.1899 82.9364 49.4996C83.0335 48.8094 83.1305 48.3456 83.1305 48.0004C83.1305 47.1376 82.9849 46.2694 82.7369 45.5198L82.7423 45.509Z" fill="#3C3C3B"/>
<path d="M72.2316 57.8368C72.1831 57.8368 72.086 57.9015 71.989 57.9015C71.989 57.9015 71.989 57.8368 71.9404 57.8422H72.2316V57.8368Z" fill="#3C3C3B"/>
<path d="M86.2432 24.3045C86.2432 23.9648 86.4319 23.7922 86.8202 23.7922H119.02C119.182 23.7922 119.295 23.8677 119.36 24.0241L121.237 29.762C121.301 29.886 121.291 29.9939 121.215 30.0909C121.134 30.1826 121.026 30.2311 120.902 30.2311H93.4102C93.0542 30.2311 92.8817 30.4037 92.8817 30.7434V37.1392C92.8817 37.3873 92.9949 37.5113 93.216 37.5113H113.789C113.919 37.5113 114.016 37.5599 114.081 37.6516C114.145 37.7432 114.161 37.8349 114.129 37.932L112.252 43.6699C112.188 43.8586 112.064 43.9503 111.87 43.9503H93.2214C93.0003 43.9503 92.8871 44.0581 92.8871 44.2792V50.675C92.8871 50.8314 92.9356 50.9663 93.0327 51.0741C93.1297 51.182 93.2592 51.2359 93.4155 51.2359H120.908C121.037 51.2359 121.14 51.2844 121.221 51.3761C121.301 51.4678 121.307 51.5595 121.242 51.6565L119.365 57.3944C119.301 57.5508 119.188 57.6263 119.026 57.6263H86.8256C86.4427 57.6263 86.2486 57.4537 86.2486 57.1086V24.2991L86.2432 24.3045Z" fill="#3C3C3B"/>
<path d="M125.782 23.7925H130.636C130.825 23.7925 130.938 23.8356 130.976 23.9327L155.777 47.3156C155.809 47.348 155.858 47.3588 155.923 47.3588C156.02 47.3588 156.068 47.3156 156.068 47.2186L156.02 24.2077C156.02 23.9003 156.181 23.7385 156.5 23.7385H162.173C162.491 23.7385 162.653 23.8949 162.653 24.2077L162.701 57.2491C162.701 57.5942 162.523 57.7614 162.173 57.7614H157.557C157.395 57.7614 157.281 57.7182 157.217 57.6212L132.178 34.0063C132.114 33.947 132.06 33.9254 132.011 33.9578C131.963 33.9901 131.941 34.0387 131.941 34.098V57.2922C131.941 57.5996 131.763 57.756 131.412 57.756H125.788C125.47 57.756 125.308 57.5996 125.308 57.2922V24.2508C125.308 23.9381 125.47 23.7817 125.788 23.7817L125.782 23.7925Z" fill="#3C3C3B"/>
<path d="M167.431 23.7439H192.566C194.68 23.7439 196.455 24.0351 197.878 24.6068C199.302 25.1838 200.451 25.9118 201.314 26.8016C202.182 27.686 202.797 28.6783 203.163 29.7676C203.53 30.857 203.713 31.9139 203.713 32.9386C203.713 33.9039 203.578 34.8044 203.303 35.6457C203.028 36.487 202.662 37.2258 202.198 37.8621C201.734 38.4985 201.189 39 200.564 39.3559C199.938 39.7118 199.259 39.8952 198.52 39.8952V39.9869C199.286 39.9869 200.138 40.1109 201.065 40.359C201.993 40.607 202.861 41.0223 203.659 41.5993C204.463 42.1709 205.132 42.9583 205.676 43.9559C206.221 44.9536 206.496 46.1993 206.496 47.6877C206.496 48.5937 206.307 49.6237 205.919 50.7939C205.536 51.9588 204.9 53.0589 204.021 54.0835C203.136 55.1081 201.961 55.9818 200.488 56.6936C199.011 57.4108 197.172 57.7668 194.961 57.7668H167.42C167.129 57.7668 166.989 57.6266 166.989 57.3461V24.1592C166.989 23.8787 167.134 23.7385 167.42 23.7385L167.431 23.7439ZM174.064 37.091H193.241C194.583 37.091 195.603 36.8267 196.293 36.2982C196.983 35.7697 197.328 34.853 197.328 33.5425C197.328 32.5449 196.999 31.736 196.341 31.1158C195.683 30.4956 194.653 30.1829 193.241 30.1829H174.064C173.773 30.1829 173.633 30.3231 173.633 30.6035V36.7189C173.633 36.9669 173.778 37.091 174.064 37.091ZM173.633 50.9018C173.633 51.1822 173.778 51.3224 174.064 51.3224H194.346C195.592 51.3224 196.589 51.1768 197.323 50.8802C198.062 50.5836 198.612 50.2439 198.978 49.8502C199.345 49.4619 199.588 49.0575 199.701 48.6368C199.814 48.2162 199.868 47.898 199.868 47.6823C199.868 46.593 199.388 45.6385 198.428 44.8134C197.468 43.9883 196.039 43.5731 194.152 43.5731H174.064C173.773 43.5731 173.633 43.6971 173.633 43.9452V50.9018Z" fill="#3C3C3B"/>
<path d="M205.999 57.2542L223.159 23.927C223.289 23.803 223.396 23.7437 223.494 23.7437H230.704C230.865 23.7437 230.979 23.803 231.043 23.927L248.252 57.2542C248.316 57.3783 248.306 57.5023 248.23 57.6263C248.149 57.7504 248.047 57.8097 247.917 57.8097H241.333C241.171 57.8097 241.058 57.7342 240.993 57.5778L238.108 51.9801C238.043 51.8561 237.93 51.7914 237.768 51.7914H216.429C216.3 51.7914 216.203 51.8561 216.138 51.9801L213.253 57.5778C213.156 57.7342 213.042 57.8097 212.913 57.8097H206.328C206.167 57.8097 206.053 57.7504 205.989 57.6263C205.924 57.5023 205.924 57.3783 205.989 57.2542H205.999ZM216.591 51.8237L234.306 45.3524C234.403 45.3524 234.473 45.3147 234.522 45.2392C234.57 45.1637 234.565 45.0936 234.5 45.0289L227.242 30.9322C227.177 30.7758 227.096 30.7758 227.004 30.9322L216.402 51.5001C216.337 51.7213 216.402 51.8291 216.591 51.8291V51.8237Z" fill="#3C3C3B"/>
<path d="M235.746 23.7437H244.013C244.077 23.7437 244.142 23.776 244.201 23.8354L258.142 38.6816C258.174 38.7139 258.255 38.7247 258.384 38.7247C258.514 38.7247 258.595 38.7086 258.622 38.6816L272.513 23.8354C272.578 23.776 272.659 23.7437 272.756 23.7437H281.023C281.185 23.7437 281.287 23.803 281.336 23.927C281.384 24.0511 281.358 24.1589 281.266 24.256L261.755 44.0905C261.723 44.1498 261.706 44.2307 261.706 44.3224V57.4376C261.706 57.6587 261.593 57.7665 261.367 57.7665H255.408C255.181 57.7665 255.068 57.6587 255.068 57.4376V44.3224C255.068 44.29 255.036 44.2146 254.971 44.0905L235.503 24.256C235.406 24.1589 235.384 24.0511 235.433 23.927C235.481 23.803 235.584 23.7437 235.746 23.7437Z" fill="#3C3C3B"/>
<path d="M74.2502 66.0175L50.4789 66.039L70.3081 60.4521L74.2502 66.0175Z" fill="#3C3C3B"/>
<path d="M231.669 80.1248V83.0962C231.669 84.3581 230.725 84.9998 228.843 84.9998H225.343C223.461 84.9998 222.517 84.3473 222.517 83.0746V78C222.517 76.7166 223.455 76.064 225.343 76.064H231.534V77.3852H225.343C224.453 77.3852 224.011 77.5902 224.011 78V83.0746C224.011 83.4791 224.453 83.684 225.343 83.684H228.843C229.727 83.684 230.169 83.4952 230.169 83.1016V81.4514H227.619V80.1302H231.669V80.1248Z" fill="#3F4191"/>
<path d="M94.0452 3.61814C93.5922 3.65589 93.1446 3.67747 92.697 3.70982C93.1985 3.67207 93.6569 3.63971 94.0452 3.61814Z" fill="#3F4191"/>
<path d="M86.226 4.20545C85.9564 4.22163 85.6814 4.24859 85.4009 4.27555C84.3493 4.35644 83.3032 4.44273 82.257 4.53441C83.5782 4.41038 84.894 4.30791 86.2206 4.21084L86.226 4.20545Z" fill="#3F4191"/>
<path d="M94.8932 3.56437L88.5675 4.01735C88.8533 3.99039 89.1391 3.97421 89.4087 3.94725C89.6622 3.93107 89.9102 3.9095 90.1637 3.89332C90.8378 3.84479 91.458 3.79625 92.0242 3.7585C92.0781 3.75311 92.1267 3.74772 92.1752 3.74772C92.3532 3.73693 92.5311 3.72076 92.6983 3.70997C93.1998 3.67222 93.6582 3.63986 94.0465 3.61829C94.1759 3.6129 94.2999 3.60212 94.4132 3.59133C94.5858 3.58055 94.7422 3.56436 94.8932 3.55897V3.56437Z" fill="#3F4191"/>
<path d="M56.9005 7.3934C55.671 7.57675 54.4522 7.7655 53.228 7.97582C55.2557 7.6199 56.5877 7.43654 56.9005 7.3934Z" fill="#3F4191"/>
<path d="M278.036 5.13353C266.468 4.46482 254.885 3.90398 243.301 3.42941C226.249 2.72297 209.192 2.19986 192.135 1.90866C172.732 1.5797 153.323 1.52577 133.931 1.9518C121.209 2.22683 108.477 2.6906 95.7718 3.5103C95.7556 3.5103 95.7286 3.51031 95.6963 3.5157L95.4752 3.52648C95.4051 3.53187 95.3457 3.53727 95.281 3.53727L94.8932 3.56437C94.7475 3.56976 94.5854 3.58041 94.4128 3.59659C94.2942 3.60198 94.1755 3.61277 94.0461 3.62355C93.6524 3.65052 93.1994 3.67748 92.6979 3.71523C92.5307 3.72602 92.3528 3.74219 92.1748 3.75297C92.1263 3.75297 92.0777 3.75837 92.0238 3.76376C91.4576 3.80151 90.8374 3.85005 90.1633 3.89858C89.9098 3.91476 89.6618 3.93633 89.4083 3.95251C89.1387 3.97948 88.8583 3.99565 88.5671 4.02261C88.4916 4.02801 88.4161 4.03341 88.3352 4.0388C88.2327 4.04419 88.1248 4.04958 88.0224 4.06576L87.7851 4.08193C87.4831 4.1089 87.1757 4.13047 86.8576 4.15743C86.7227 4.16282 86.5825 4.17361 86.4477 4.19518C86.3722 4.20058 86.3075 4.20597 86.232 4.21136C85.9624 4.22754 85.6873 4.25451 85.4069 4.28147C75.5705 5.11735 60.3414 6.69202 46.7786 9.24819C46.7679 9.25358 46.7463 9.25898 46.7301 9.25898C33.7605 12.1063 13.0416 18.4806 12.6911 30.1235V30.1936C12.6911 30.7814 12.7342 31.3962 12.8151 32.0325C13.5377 35.6942 17.6146 44.0098 38.9969 49.985C39.1317 50.0174 39.2665 50.0389 39.4014 50.0605C39.4014 50.0605 31.9648 51.3979 23.0451 50.1198C22.9643 50.1036 22.878 50.0875 22.7971 50.0821C21.6269 49.9095 20.435 49.6884 19.2325 49.4188C19.2055 49.4134 19.1839 49.408 19.1516 49.4026C12.2489 47.6553 0.832401 42.5268 0.039667 31.7737C-0.866315 19.3272 13.8451 13.131 15.1879 12.5917C15.1879 12.5917 15.1987 12.5863 15.2311 12.5755C16.2017 12.1387 34.9362 4.01722 79.572 2.34547H79.6097C81.2491 2.23761 82.8831 2.13515 84.5225 2.03808C91.2257 1.64441 97.9343 1.35321 104.648 1.12132C111.594 0.884038 118.556 0.722257 125.513 0.625187C132.577 0.528118 139.647 0.484973 146.712 0.495758C153.749 0.501151 160.798 0.565868 167.84 0.66833C168.903 0.679116 169.965 0.700685 171.022 0.716863H171.076C176.884 0.80854 182.687 0.932572 188.495 1.07818C195.079 1.24535 201.675 1.44488 208.259 1.67137C214.418 1.88708 220.576 2.12437 226.735 2.38322C232.327 2.6205 237.919 2.87935 243.512 3.16517C248.403 3.40245 253.294 3.6667 258.185 3.93633C262.241 4.16283 266.296 4.4055 270.351 4.65357C272.918 4.80457 275.485 4.97174 278.041 5.13892L278.036 5.13353Z" fill="#3F4191"/>
<path d="M74.2502 66.0175L50.4789 66.039L70.3081 60.4521L74.2502 66.0175Z" fill="#3C3C3B"/>
</svg>
