<?xml version="1.0" standalone="no"?>
<!DOCTYPE svg PUBLIC "-//W3C//DTD SVG 20010904//EN"
 "http://www.w3.org/TR/2001/REC-SVG-20010904/DTD/svg10.dtd">
<svg version="1.0" xmlns="http://www.w3.org/2000/svg"
 width="512.000000pt" height="512.000000pt" viewBox="0 0 512.000000 512.000000"
 preserveAspectRatio="xMidYMid meet">

<g transform="translate(0.000000,512.000000) scale(0.100000,-0.100000)"
fill="#000000" stroke="none">
<path d="M3680 4787 c-39 -12 -140 -107 -140 -131 0 -14 -37 -16 -330 -16
l-330 0 0 -80 0 -80 330 0 c293 0 330 -2 330 -16 0 -27 101 -119 146 -132 94
-28 169 -8 239 63 52 51 75 102 75 165 0 63 -23 114 -75 165 -70 71 -152 91
-245 62z m135 -172 c16 -15 25 -36 25 -55 0 -19 -9 -40 -25 -55 -15 -16 -36
-25 -55 -25 -19 0 -40 9 -55 25 -16 15 -25 36 -25 55 0 19 9 40 25 55 15 16
36 25 55 25 19 0 40 -9 55 -25z"/>
<path d="M320 4707 c-49 -16 -133 -102 -148 -153 -17 -60 -17 -2888 0 -2948
16 -55 99 -138 154 -154 31 -9 255 -12 898 -12 l856 0 0 -320 0 -320 -135 0
c-131 0 -137 -1 -160 -25 -25 -24 -25 -26 -25 -215 0 -189 0 -191 25 -215 l24
-25 751 0 751 0 24 25 c25 24 25 26 25 215 0 189 0 191 -25 215 -23 24 -29 25
-160 25 l-135 0 0 320 0 320 858 0 c975 0 919 -5 995 80 24 26 49 66 55 88 8
27 12 157 12 431 l0 392 -25 24 -24 25 -1096 0 -1095 0 0 1095 0 1096 -25 24
-24 25 -1158 -1 c-814 -1 -1168 -4 -1193 -12z m2240 -307 l0 -160 -1120 0
-1120 0 0 135 c0 131 1 137 25 160 l24 25 1096 0 1095 0 0 -160z m0 -1175 l0
-856 25 -24 24 -25 1096 0 1095 0 0 -335 0 -336 -25 -24 -24 -25 -2191 0
-2191 0 -24 25 -25 24 0 1216 0 1215 1120 0 1120 0 0 -855z m-80 -1920 c0
-131 1 -137 25 -160 32 -33 78 -33 110 0 24 23 25 29 25 160 l0 135 120 0 120
0 0 -320 0 -320 -320 0 -320 0 0 320 0 320 120 0 120 0 0 -135z m720 -745 l0
-80 -640 0 -640 0 0 80 0 80 640 0 640 0 0 -80z"/>
<path d="M425 4455 c-50 -49 -15 -135 55 -135 41 0 80 39 80 80 0 41 -39 80
-80 80 -19 0 -40 -9 -55 -25z"/>
<path d="M665 4455 c-50 -49 -15 -135 55 -135 41 0 80 39 80 80 0 41 -39 80
-80 80 -19 0 -40 -9 -55 -25z"/>
<path d="M905 4455 c-50 -49 -15 -135 55 -135 41 0 80 39 80 80 0 41 -39 80
-80 80 -19 0 -40 -9 -55 -25z"/>
<path d="M1945 3895 c-25 -24 -25 -27 -25 -200 l0 -175 -135 0 c-131 0 -137
-1 -160 -25 -24 -23 -25 -29 -25 -160 l0 -135 -135 0 c-131 0 -137 -1 -160
-25 -25 -24 -25 -27 -25 -200 l0 -175 -135 0 c-131 0 -137 -1 -160 -25 -24
-23 -25 -29 -25 -160 l0 -135 -135 0 c-131 0 -137 -1 -160 -25 -24 -23 -25
-29 -25 -160 l0 -135 -80 0 -80 0 0 -80 0 -80 1120 0 1120 0 0 80 0 80 -160 0
-160 0 0 855 0 856 -25 24 c-24 25 -26 25 -215 25 -189 0 -191 0 -215 -25z
m295 -935 l0 -800 -80 0 -80 0 0 800 0 800 80 0 80 0 0 -800z m-320 -200 l0
-600 -80 0 -80 0 0 600 0 600 80 0 80 0 0 -600z m-320 -160 l0 -440 -80 0 -80
0 0 440 0 440 80 0 80 0 0 -440z m-320 -200 l0 -240 -80 0 -80 0 0 240 0 240
80 0 80 0 0 -240z m-320 -160 l0 -80 -80 0 -80 0 0 80 0 80 80 0 80 0 0 -80z"/>
<path d="M2880 2080 l0 -80 80 0 80 0 0 80 0 80 -80 0 -80 0 0 -80z"/>
<path d="M4640 4707 c-39 -12 -140 -107 -140 -131 0 -14 -16 -16 -106 -16
-126 0 -83 34 -358 -288 l-199 -233 -142 141 -142 140 -336 0 -337 0 0 -80 0
-80 302 0 302 0 161 -160 161 -160 227 0 c199 0 227 -2 227 -16 0 -8 24 -39
53 -67 73 -73 146 -93 241 -65 55 16 138 99 154 154 28 94 8 169 -63 239 -102
102 -229 102 -332 -2 -29 -28 -53 -59 -53 -67 0 -14 -18 -16 -121 -16 l-121 0
19 24 c10 14 86 103 168 200 l150 175 73 1 c53 0 72 -3 72 -13 0 -26 75 -100
124 -123 95 -44 184 -27 261 51 52 51 75 102 75 165 0 63 -23 114 -75 165 -70
71 -152 91 -245 62z m135 -172 c16 -15 25 -36 25 -55 0 -19 -9 -40 -25 -55
-15 -16 -36 -25 -55 -25 -19 0 -40 9 -55 25 -16 15 -25 36 -25 55 0 19 9 40
25 55 15 16 36 25 55 25 19 0 40 -9 55 -25z m-240 -560 c16 -15 25 -36 25 -55
0 -19 -9 -40 -25 -55 -15 -16 -36 -25 -55 -25 -19 0 -40 9 -55 25 -16 15 -25
36 -25 55 0 19 9 40 25 55 15 16 36 25 55 25 19 0 40 -9 55 -25z"/>
<path d="M2880 3840 l0 -80 303 0 303 0 68 -69 c67 -68 68 -70 57 -102 -28
-81 -6 -165 64 -234 101 -102 229 -102 330 0 102 101 102 229 0 330 -69 69
-153 92 -234 64 -32 -11 -33 -10 -125 80 l-93 91 -337 0 -336 0 0 -80z m1015
-265 c16 -15 25 -36 25 -55 0 -19 -9 -40 -25 -55 -15 -16 -36 -25 -55 -25 -19
0 -40 9 -55 25 -16 15 -25 36 -25 55 0 19 9 40 25 55 15 16 36 25 55 25 19 0
40 -9 55 -25z"/>
<path d="M4395 3504 c-116 -42 -182 -184 -141 -301 l14 -40 -111 -141 -112
-141 -582 -1 -583 0 0 -80 0 -80 614 0 c570 0 615 1 634 18 11 9 74 85 141
169 115 145 122 152 147 143 34 -13 88 -13 138 2 55 16 138 99 154 154 57 193
-126 366 -313 298z m140 -169 c16 -15 25 -36 25 -55 0 -19 -9 -40 -25 -55 -15
-16 -36 -25 -55 -25 -19 0 -40 9 -55 25 -16 15 -25 36 -25 55 0 19 9 40 25 55
15 16 36 25 55 25 19 0 40 -9 55 -25z"/>
<path d="M3360 3427 c-39 -12 -140 -107 -140 -131 0 -14 -22 -16 -170 -16
l-170 0 0 -80 0 -80 170 0 c148 0 170 -2 170 -16 0 -27 101 -119 146 -132 94
-28 169 -8 239 63 52 51 75 102 75 165 0 63 -23 114 -75 165 -70 71 -152 91
-245 62z m135 -172 c16 -15 25 -36 25 -55 0 -19 -9 -40 -25 -55 -15 -16 -36
-25 -55 -25 -19 0 -40 9 -55 25 -16 15 -25 36 -25 55 0 19 9 40 25 55 15 16
36 25 55 25 19 0 40 -9 55 -25z"/>
</g>
</svg>
