<?xml version="1.0" standalone="no"?>
<!DOCTYPE svg PUBLIC "-//W3C//DTD SVG 20010904//EN"
 "http://www.w3.org/TR/2001/REC-SVG-20010904/DTD/svg10.dtd">
<svg version="1.0" xmlns="http://www.w3.org/2000/svg"
 width="512.000000pt" height="512.000000pt" viewBox="0 0 512.000000 512.000000"
 preserveAspectRatio="xMidYMid meet">

<g transform="translate(0.000000,512.000000) scale(0.100000,-0.100000)"
fill="#000000" stroke="none">
<path d="M1201 4845 c71 -282 94 -346 151 -410 84 -96 180 -134 362 -144 l129
-6 89 -265 c55 -163 87 -275 84 -290 -17 -92 -37 -142 -76 -191 -55 -69 -85
-131 -106 -215 -15 -59 -26 -78 -76 -133 -32 -35 -70 -83 -85 -107 -16 -24
-30 -44 -33 -44 -3 0 -12 13 -21 29 -29 51 -90 71 -215 71 -94 0 -116 -3 -154
-23 -25 -12 -55 -37 -67 -56 -22 -33 -23 -40 -23 -307 l0 -274 -330 0 -330 0
0 243 c0 133 -5 260 -10 281 -12 54 -38 87 -90 114 -38 19 -60 22 -156 22
-136 0 -184 -19 -221 -90 l-23 -43 0 -1504 0 -1503 2560 0 2560 0 0 1503 0
1504 -23 43 c-37 71 -85 90 -221 90 -96 0 -118 -3 -156 -22 -52 -27 -78 -60
-90 -114 -5 -21 -10 -148 -10 -281 l0 -243 -330 0 -330 0 0 274 c0 267 -1 274
-23 307 -12 19 -42 44 -67 57 -38 19 -60 22 -154 22 -125 0 -186 -20 -215 -71
-9 -16 -18 -29 -21 -29 -3 0 -17 20 -33 44 -15 24 -53 72 -85 107 -50 55 -61
74 -76 133 -21 84 -51 146 -106 215 -39 49 -59 99 -76 191 -3 15 29 127 84
290 l89 265 129 6 c182 10 278 48 362 144 57 64 80 128 151 410 l69 277 -286
-4 c-265 -4 -292 -6 -357 -27 -98 -32 -211 -93 -272 -146 -47 -41 -55 -45 -75
-34 -62 33 -123 39 -438 39 -315 0 -376 -6 -438 -39 -20 -11 -28 -7 -75 34
-61 53 -174 114 -272 146 -65 21 -92 23 -357 27 l-286 4 69 -277z m513 90 c64
-17 173 -71 220 -109 l29 -24 -29 -36 c-16 -20 -33 -36 -38 -36 -4 0 -35 25
-67 55 -33 30 -90 75 -127 101 -37 26 -71 51 -76 56 -15 13 24 10 88 -7z
m1781 7 c-6 -5 -40 -30 -77 -56 -37 -26 -94 -71 -127 -101 -32 -30 -63 -55
-67 -55 -5 0 -22 16 -37 35 l-28 35 28 25 c41 36 152 93 214 109 61 16 108 20
94 8z m-2042 -94 c96 -50 251 -164 324 -240 50 -52 51 -54 46 -100 l-6 -48
-97 0 c-141 0 -218 34 -267 117 -18 32 -89 267 -93 311 0 7 19 -2 93 -40z
m2303 25 c-3 -10 -17 -65 -31 -123 -58 -234 -121 -290 -325 -290 l-97 0 -6 48
c-5 46 -4 48 46 100 74 76 218 183 317 236 95 51 104 54 96 29z m-1355 -160
c29 -42 58 -97 66 -122 38 -125 -45 -262 -177 -290 -28 -6 -100 -11 -161 -11
l-110 0 -16 38 c-11 24 -17 65 -17 117 0 91 26 162 84 228 56 65 161 115 242
116 36 1 40 -3 89 -76z m541 39 c123 -60 192 -169 192 -302 1 -67 -7 -99 -78
-310 -43 -129 -81 -238 -85 -242 -3 -4 -35 7 -70 24 -53 27 -78 33 -151 36
-59 3 -104 0 -139 -11 -45 -13 -57 -13 -102 0 -35 11 -80 14 -139 11 -73 -3
-98 -9 -151 -36 -35 -17 -67 -28 -70 -24 -4 4 -21 52 -39 107 -18 55 -35 105
-37 112 -3 8 34 12 129 15 108 4 144 9 191 27 81 32 168 114 209 199 31 62 33
74 33 167 0 107 -11 147 -61 226 l-25 41 163 -4 c161 -3 164 -3 230 -36z
m-433 -984 l51 -25 53 26 c40 20 67 26 117 26 102 -1 176 -50 219 -145 62
-138 -22 -308 -169 -339 -66 -14 -374 -14 -440 0 -147 31 -231 201 -169 339
61 135 204 185 338 118z m-445 -460 c20 -28 31 -61 41 -123 7 -47 24 -108 38
-137 31 -67 96 -141 153 -174 92 -54 5 -65 -103 -13 -113 54 -191 166 -209
296 -9 72 25 221 45 197 4 -5 19 -26 35 -46z m1066 -43 c31 -164 -53 -332
-203 -404 -108 -52 -195 -41 -103 13 57 33 122 107 153 174 14 29 31 90 38
136 11 65 21 94 47 130 28 41 34 45 44 31 7 -9 17 -45 24 -80z m-290 -126 c0
-4 -15 -28 -32 -55 -46 -67 -116 -104 -210 -111 -137 -10 -241 32 -293 121
-14 23 -25 45 -25 47 0 2 126 4 280 4 154 0 280 -3 280 -6z m-964 -185 c71
-145 218 -258 372 -286 l62 -12 0 -88 0 -88 250 0 250 0 0 88 0 88 63 12 c34
6 92 26 129 45 l67 33 26 -57 c29 -66 45 -140 45 -214 0 -72 33 -194 72 -268
18 -34 58 -89 89 -122 l57 -60 -69 -190 c-121 -332 -149 -444 -149 -605 0 -65
-2 -72 -13 -55 -8 11 -21 42 -30 69 -36 107 -94 173 -188 216 -24 11 -56 20
-71 20 l-28 0 0 171 0 171 50 74 c62 94 100 209 107 327 l6 87 -80 0 -80 0 -7
-69 c-14 -151 -79 -282 -183 -366 -30 -25 -59 -45 -63 -45 -4 0 -33 20 -63 45
-104 84 -170 215 -183 363 l-7 72 -78 0 -79 0 0 -61 0 -60 -41 23 c-86 48
-129 134 -129 258 0 75 -21 156 -56 216 -24 41 -102 120 -158 160 l-28 20 17
35 c15 30 77 129 82 129 1 0 18 -34 39 -76z m1507 -90 c59 -127 79 -219 81
-369 1 -127 -22 -276 -44 -290 -12 -8 -78 102 -96 160 -8 28 -19 100 -24 161
-9 118 -29 189 -79 281 l-31 56 29 46 c16 25 37 64 45 86 l17 39 32 -46 c18
-25 49 -81 70 -124z m-3053 -1294 l0 -1400 -80 0 -80 0 0 1400 0 1400 80 0 80
0 0 -1400z m1160 0 l0 -1400 -85 0 -85 0 0 1400 0 1400 85 0 85 0 0 -1400z
m2310 0 l0 -1400 -85 0 -85 0 0 1400 0 1400 85 0 85 0 0 -1400z m1150 0 l0
-1400 -80 0 -80 0 0 1400 0 1400 80 0 80 0 0 -1400z m-2351 1225 c35 -18 41
-32 41 -101 l0 -54 -80 0 -80 0 0 58 c0 59 10 81 45 100 27 15 41 15 74 -3z
m-845 -157 c44 -51 66 -120 66 -208 0 -75 21 -156 56 -216 54 -92 174 -175
272 -190 39 -6 45 -11 67 -53 13 -25 39 -68 59 -96 35 -48 36 -53 36 -140 l0
-91 -37 -13 c-141 -48 -234 -175 -258 -348 -4 -28 -13 -60 -21 -70 -12 -16
-13 -12 -14 35 -1 150 -26 247 -171 646 -129 353 -145 407 -155 531 -6 72 9
245 22 267 8 13 40 -9 78 -54z m-594 -408 l0 -80 -330 0 -330 0 0 80 0 80 330
0 330 0 0 -80z m3460 0 l0 -80 -330 0 -330 0 0 80 0 80 330 0 330 0 0 -80z
m-3460 -415 l0 -165 -330 0 -330 0 0 165 0 165 330 0 330 0 0 -165z m3460 0
l0 -165 -330 0 -330 0 0 165 0 165 330 0 330 0 0 -165z m-2931 -74 c17 -47 31
-86 31 -88 0 -2 -16 -3 -35 -3 l-35 0 0 92 c0 50 2 89 4 87 3 -2 18 -42 35
-88z m1781 -1 l0 -90 -36 0 c-27 0 -35 3 -31 14 3 8 18 49 33 90 15 42 28 76
30 76 2 0 4 -40 4 -90z m-946 -81 l36 -21 36 21 c19 12 37 21 39 21 2 0 5
-150 7 -332 4 -315 6 -348 43 -627 l38 -293 -39 -80 c-29 -60 -39 -92 -39
-129 l0 -49 -85 0 -85 0 0 49 c0 37 -10 69 -39 129 l-39 80 38 293 c37 279 39
312 43 627 2 182 5 332 7 332 2 0 20 -9 39 -21z m-1366 -256 l3 -83 -331 0
-330 0 0 85 0 85 328 -2 327 -3 3 -82z m630 40 c6 -27 14 -65 17 -85 l7 -38
-81 0 -81 0 0 85 0 85 64 0 64 0 10 -47z m1682 -38 l0 -85 -81 0 -81 0 7 38
c3 20 11 58 17 85 l10 47 64 0 64 0 0 -85z m1150 0 l0 -85 -330 0 -330 0 0 78
c0 43 3 82 7 85 3 4 152 7 330 7 l323 0 0 -85z m-2320 -425 c-10 -75 -16 -91
-55 -145 -24 -34 -60 -73 -82 -88 -39 -26 -153 -80 -159 -75 -7 8 -24 179 -24
249 l0 76 58 34 c36 22 68 51 88 81 31 45 40 74 64 201 10 51 19 66 63 110
l52 52 3 -205 c2 -113 -2 -243 -8 -290z m592 293 c15 -15 39 -56 53 -93 37
-96 76 -153 140 -202 52 -41 55 -45 55 -88 0 -46 -19 -212 -24 -218 -6 -5
-120 49 -159 75 -22 15 -58 54 -82 88 -37 52 -45 71 -54 138 -6 43 -11 139
-11 212 l0 135 28 -11 c15 -6 39 -22 54 -36z m-1734 -280 l2 -163 -330 0 -330
0 0 165 0 165 328 -2 327 -3 3 -162z m660 0 l2 -163 -85 0 -85 0 0 165 0 166
83 -3 82 -3 3 -162z m1652 2 l0 -165 -85 0 -85 0 0 158 c0 87 3 162 7 165 3 4
42 7 85 7 l78 0 0 -165z m1150 0 l0 -165 -330 0 -330 0 0 158 c0 87 3 162 7
165 3 4 152 7 330 7 l323 0 0 -165z m-3460 -415 l0 -80 -330 0 -330 0 0 80 0
80 330 0 330 0 0 -80z m694 9 c9 -39 16 -75 16 -80 0 -5 -49 -9 -110 -9 l-110
0 0 80 0 80 94 0 94 0 16 -71z m1616 -174 l0 -245 -85 0 -85 0 0 48 c0 34 -10
69 -35 121 -19 40 -35 78 -35 84 0 7 12 63 26 125 l27 112 93 0 94 0 0 -245z
m1150 165 l0 -80 -330 0 -330 0 0 80 0 80 330 0 330 0 0 -80z m-2370 9 c0 -5
-5 -52 -11 -102 l-12 -92 42 -82 c69 -138 65 -143 -126 -143 -141 0 -144 0
-154 23 -9 20 -4 38 35 115 46 91 46 92 34 143 -8 33 -9 54 -3 56 6 2 48 23
95 47 97 49 100 50 100 35z m710 -31 c41 -19 83 -38 93 -41 20 -7 21 -26 7
-79 -10 -34 -7 -44 36 -129 39 -78 44 -96 35 -116 -10 -23 -13 -23 -154 -23
-191 0 -195 5 -126 143 l42 82 -12 92 c-13 109 -13 116 -3 111 4 -2 41 -20 82
-40z m-1800 -308 l0 -80 -330 0 -330 0 0 80 0 80 330 0 330 0 0 -80z m674 45
c-7 -19 -14 -55 -14 -80 l0 -45 -85 0 -85 0 0 80 0 80 99 0 100 0 -15 -35z
m2786 -45 l0 -80 -330 0 -330 0 0 80 0 80 330 0 330 0 0 -80z"/>
<path d="M2172 4597 c-47 -50 -10 -137 58 -137 69 0 107 91 57 138 -32 30 -87
29 -115 -1z"/>
<path d="M2832 4597 c-47 -50 -10 -137 58 -137 69 0 107 91 57 138 -32 30 -87
29 -115 -1z"/>
<path d="M2352 3623 c-21 -8 -44 -63 -38 -89 21 -83 141 -83 162 0 7 28 -18
81 -41 90 -19 7 -64 7 -83 -1z"/>
<path d="M2682 3623 c-21 -8 -44 -63 -38 -89 21 -83 141 -83 162 0 7 28 -18
81 -41 90 -19 7 -64 7 -83 -1z"/>
</g>
</svg>
