<?xml version="1.0" standalone="no"?>
<!DOCTYPE svg PUBLIC "-//W3C//DTD SVG 20010904//EN"
 "http://www.w3.org/TR/2001/REC-SVG-20010904/DTD/svg10.dtd">
<svg version="1.0" xmlns="http://www.w3.org/2000/svg"
 width="512.000000pt" height="512.000000pt" viewBox="0 0 512.000000 512.000000"
 preserveAspectRatio="xMidYMid meet">

<g transform="translate(0.000000,512.000000) scale(0.100000,-0.100000)"
fill="#000000" stroke="none">
<path d="M2471 4859 c-109 -21 -230 -103 -290 -197 -60 -95 -71 -145 -71 -343
0 -211 14 -271 85 -368 202 -274 624 -237 773 69 49 100 67 300 41 460 -40
255 -286 429 -538 379z m192 -129 c88 -27 162 -94 203 -182 28 -62 29 -66 29
-233 l0 -170 -33 -67 c-61 -123 -169 -192 -303 -192 -67 0 -86 5 -143 33 -79
39 -137 102 -166 179 -20 52 -21 73 -18 237 3 164 5 184 26 222 48 90 126 154
221 179 66 18 110 17 184 -6z"/>
<path d="M1320 4609 c-118 -23 -229 -112 -283 -227 l-32 -67 0 -190 0 -190 32
-67 c58 -123 167 -206 303 -230 205 -36 414 110 459 320 6 29 11 104 11 167 0
182 -28 271 -116 365 -94 101 -236 146 -374 119z m209 -143 c55 -28 113 -89
137 -143 25 -57 32 -291 10 -366 -20 -68 -86 -145 -153 -178 -75 -35 -172 -33
-248 6 -66 34 -125 101 -144 165 -15 49 -14 307 1 351 55 164 244 242 397 165z"/>
<path d="M3621 4604 c-153 -41 -268 -160 -300 -312 -14 -68 -14 -265 0 -334
24 -116 110 -228 216 -282 202 -102 448 -15 546 192 l32 67 0 190 0 190 -32
67 c-56 119 -165 204 -292 228 -70 13 -104 12 -170 -6z m229 -142 c61 -31 120
-100 139 -162 6 -20 11 -99 11 -175 0 -76 -5 -155 -11 -175 -19 -64 -78 -131
-144 -165 -76 -39 -173 -41 -248 -6 -64 31 -133 110 -152 174 -21 72 -20 278
2 346 28 88 114 167 208 192 51 13 136 1 195 -29z"/>
<path d="M2120 3707 c-77 -26 -141 -63 -192 -110 l-37 -35 -62 25 c-33 13 -85
27 -115 30 -53 6 -55 5 -104 -41 -68 -64 -119 -86 -200 -86 -80 0 -147 29
-205 89 -34 35 -45 41 -81 41 -52 0 -149 -30 -206 -63 -54 -32 -139 -121 -167
-175 -43 -85 -51 -143 -51 -387 0 -126 4 -235 8 -241 21 -32 52 -34 556 -34
l506 0 0 -79 c0 -59 4 -84 16 -95 14 -14 98 -16 778 -16 579 0 765 3 774 12 7
7 12 44 12 95 l0 83 506 0 c504 0 535 2 556 34 4 6 8 115 8 241 0 306 -16 368
-129 488 -54 58 -110 93 -192 118 -96 30 -122 26 -173 -24 -67 -66 -106 -82
-206 -82 -74 0 -91 3 -130 27 -25 14 -60 43 -78 63 -32 37 -33 38 -95 33 -34
-3 -89 -16 -122 -30 l-60 -24 -59 48 c-66 53 -126 84 -201 104 -90 24 -111 20
-174 -38 -71 -65 -127 -90 -216 -96 -95 -6 -166 21 -244 94 -54 50 -62 54
-107 54 -27 0 -78 -11 -114 -23z m146 -128 c89 -94 263 -141 404 -108 61 14
136 53 193 101 l48 40 56 -18 c113 -36 215 -138 249 -250 11 -36 14 -121 14
-371 l0 -323 -670 0 -671 0 3 338 3 337 28 60 c46 98 127 170 236 210 55 21
75 18 107 -16z m-1113 -115 c22 -20 65 -48 96 -63 49 -23 68 -26 161 -26 93 0
112 3 161 26 31 15 74 43 96 63 l40 36 51 -15 c28 -9 53 -19 56 -24 3 -4 -5
-32 -17 -62 -20 -49 -22 -77 -27 -304 l-5 -250 -473 -3 -473 -2 3 207 c3 204
3 209 31 265 34 70 110 140 180 167 70 27 74 26 120 -15z m2329 -12 c84 -64
154 -85 261 -80 93 4 168 32 241 92 37 31 47 34 72 27 90 -26 177 -102 217
-189 20 -43 22 -67 25 -255 l3 -207 -473 2 -473 3 -5 255 c-5 235 -7 259 -28
308 l-22 53 32 13 c82 33 76 34 150 -22z"/>
<path d="M3480 2272 c-30 -11 -130 -60 -222 -110 l-168 -92 -222 0 c-264 0
-310 8 -470 79 -182 81 -245 95 -428 94 -179 0 -259 -17 -398 -83 -104 -50
-155 -84 -267 -184 -49 -43 -117 -92 -149 -107 -58 -27 -76 -29 -76 -7 0 26
-73 239 -86 253 -13 13 -65 15 -364 15 l-350 0 -15 -24 c-15 -22 -8 -90 94
-921 89 -735 112 -900 127 -916 16 -18 36 -19 524 -19 478 0 508 1 523 18 10
10 17 28 17 40 0 11 -27 109 -60 216 -33 108 -60 202 -60 210 0 14 371 256
424 276 50 19 116 10 560 -72 417 -78 448 -82 576 -82 149 1 225 14 360 64 73
26 153 77 580 371 272 187 591 406 708 486 117 80 217 154 223 165 16 30 4 60
-47 116 -29 33 -69 63 -112 84 -62 31 -74 33 -168 33 -85 0 -108 -4 -152 -24
l-51 -24 -36 32 c-20 17 -59 43 -88 58 -45 24 -64 28 -137 28 -73 0 -92 -4
-137 -27 l-51 -27 -26 20 c-14 11 -51 31 -82 46 -77 35 -213 42 -294 15z m249
-126 l34 -18 -54 -30 c-30 -16 -89 -48 -132 -71 l-78 -41 -47 26 c-26 14 -64
31 -86 38 l-38 12 53 31 c117 65 158 78 239 74 46 -2 88 -11 109 -21z m-1623
-27 c81 -14 142 -34 257 -86 170 -76 169 -75 582 -82 351 -6 372 -7 417 -28
87 -40 163 -127 189 -215 l8 -28 -52 0 c-29 0 -142 5 -252 10 -200 10 -469 -1
-521 -20 -44 -17 -44 -95 0 -106 13 -3 93 -1 177 5 117 8 222 8 439 -3 317
-15 326 -14 332 45 3 30 16 38 383 237 378 205 380 206 451 210 57 3 81 0 122
-18 28 -12 58 -30 67 -40 20 -22 85 27 -625 -460 -283 -195 -559 -384 -612
-420 -154 -107 -357 -161 -540 -146 -43 4 -272 42 -509 86 -250 46 -458 80
-495 80 -89 0 -131 -19 -342 -153 -101 -65 -187 -117 -191 -117 -6 0 -261 826
-261 845 0 6 35 27 78 47 53 25 109 64 180 127 154 135 256 190 418 225 83 17
218 20 300 5z m2052 -14 c28 -13 52 -28 52 -33 0 -14 -542 -305 -550 -295 -4
4 -21 34 -38 65 l-31 57 167 89 c92 50 189 102 216 116 62 33 115 33 184 1z
m-2996 -915 c136 -448 248 -816 248 -817 0 -2 -187 -3 -415 -3 l-414 0 -6 33
c-5 29 -195 1591 -195 1602 0 3 120 4 267 3 l266 -3 249 -815z"/>
<path d="M895 795 c-122 -44 -163 -202 -77 -297 20 -23 51 -47 69 -55 137 -57
291 75 254 217 -30 112 -142 174 -246 135z m118 -137 c24 -28 21 -55 -8 -83
-30 -31 -62 -32 -92 -3 -30 28 -29 63 3 94 29 30 67 27 97 -8z"/>
</g>
</svg>
