<?xml version="1.0" standalone="no"?>
<!DOCTYPE svg PUBLIC "-//W3C//DTD SVG 20010904//EN"
 "http://www.w3.org/TR/2001/REC-SVG-20010904/DTD/svg10.dtd">
<svg version="1.0" xmlns="http://www.w3.org/2000/svg"
 width="512.000000pt" height="512.000000pt" viewBox="0 0 512.000000 512.000000"
 preserveAspectRatio="xMidYMid meet">

<g transform="translate(0.000000,512.000000) scale(0.100000,-0.100000)"
fill="#000000" stroke="none">
<path d="M973 4912 c-77 -27 -136 -81 -175 -160 l-33 -67 -3 -2057 -2 -2058
-84 0 c-68 0 -88 -4 -107 -19 -23 -19 -24 -24 -24 -171 0 -147 1 -152 24 -171
23 -19 63 -19 1638 -19 l1614 0 24 25 c24 23 25 29 25 165 0 136 -1 142 -25
165 -22 23 -32 25 -110 25 l-85 0 0 660 0 660 39 0 c76 0 71 25 71 -345 0
-183 5 -357 10 -386 24 -125 107 -232 227 -291 64 -31 74 -33 173 -33 98 0
110 3 171 32 119 59 208 178 229 310 11 64 14 2452 4 2491 -4 14 -102 98 -264
226 -141 112 -266 209 -278 215 -13 7 -87 11 -201 11 l-180 0 -3 283 c-4 239
-7 289 -22 329 -25 66 -86 132 -154 165 l-57 28 -1195 2 c-1128 2 -1198 2
-1247 -15z m2430 -136 c42 -17 83 -66 97 -114 8 -25 10 -251 8 -717 l-3 -680
-22 -35 c-12 -20 -40 -46 -61 -58 l-40 -22 -1179 0 -1180 0 -34 23 c-18 12
-44 38 -56 56 l-23 34 0 707 0 707 23 34 c12 18 40 44 62 56 l40 23 1168 0
c964 0 1173 -2 1200 -14z m377 -846 l0 -50 -65 0 -65 0 0 50 0 50 65 0 65 0 0
-50z m430 -135 l230 -180 0 -232 0 -233 -49 0 -50 0 -3 205 c-4 269 15 249
-233 253 l-185 3 0 185 0 185 30 -3 c22 -2 97 -55 260 -183z m-430 -168 c0
-135 6 -148 76 -156 l49 -6 5 -85 c6 -92 13 -111 57 -152 42 -40 94 -58 168
-58 l65 0 0 -967 c0 -533 -4 -974 -9 -981 -5 -8 -17 -12 -27 -10 -18 3 -19 21
-24 373 -5 311 -8 377 -22 411 -63 159 -188 249 -370 268 l-98 10 0 733 0 733
65 0 65 0 0 -113z m418 -239 l3 -78 -60 0 c-79 0 -91 12 -91 96 l0 65 73 -3
72 -3 3 -77z m-3237 -358 c43 -19 70 -20 1241 -20 1174 0 1199 0 1250 20 29
11 54 20 56 20 1 0 2 -558 2 -1240 l0 -1240 -1300 0 -1300 0 0 1240 c0 682 2
1240 4 1240 2 0 23 -9 47 -20z m3477 -72 l3 -48 -50 0 -51 0 0 51 0 50 48 -3
47 -3 3 -47z m-3 -988 c0 -789 0 -795 -21 -841 -43 -92 -125 -149 -226 -157
-109 -8 -199 41 -253 139 l-30 54 -5 375 c-4 270 -8 381 -17 396 -33 58 -107
94 -190 94 l-43 0 0 51 0 52 76 -6 c128 -11 203 -60 250 -162 24 -49 24 -54
24 -406 0 -353 0 -356 23 -400 72 -135 268 -111 306 38 7 28 11 297 11 808 l0
766 48 -3 47 -3 0 -795z m-705 -1590 l0 -50 -1525 0 -1525 0 0 50 0 50 1525 0
1525 0 0 -50z"/>
<path d="M1269 4431 l-24 -19 0 -440 c0 -419 1 -441 19 -461 l19 -21 923 0
923 0 20 26 c21 26 21 37 21 456 l0 429 -25 24 -24 25 -914 0 c-886 0 -916 -1
-938 -19z m1761 -461 l0 -340 -820 0 -820 0 0 340 0 340 820 0 820 0 0 -340z"/>
<path d="M2125 2310 c-145 -22 -251 -75 -356 -180 -41 -41 -89 -100 -106 -130
-103 -182 -108 -397 -15 -590 67 -139 236 -281 382 -320 89 -24 164 -30 248
-19 242 29 430 179 520 417 23 60 26 81 26 202 0 121 -3 142 -26 202 -88 232
-275 385 -511 417 -86 12 -89 12 -162 1z m155 -140 c188 -30 347 -173 395
-355 30 -117 14 -254 -43 -359 -41 -77 -128 -158 -213 -200 -240 -117 -524
-22 -645 216 -160 314 63 687 421 707 11 0 49 -4 85 -9z"/>
<path d="M2119 2033 c-68 -75 -162 -218 -190 -291 -31 -78 -36 -185 -13 -254
24 -72 109 -158 181 -182 125 -41 244 -14 329 76 74 77 101 161 84 265 -18
106 -116 277 -229 398 -62 66 -92 63 -162 -12z m167 -221 c90 -134 110 -236
61 -310 -44 -67 -145 -94 -215 -58 -36 19 -80 69 -88 102 -19 74 24 192 114
312 l47 64 23 -29 c12 -15 38 -52 58 -81z"/>
<path d="M1029 2011 c-23 -18 -24 -26 -27 -158 -4 -164 6 -219 45 -234 15 -6
37 -6 52 -1 42 14 53 65 49 230 -3 137 -4 145 -27 163 -30 24 -62 24 -92 0z"/>
</g>
</svg>
