<?xml version="1.0" standalone="no"?>
<!DOCTYPE svg PUBLIC "-//W3C//DTD SVG 20010904//EN"
 "http://www.w3.org/TR/2001/REC-SVG-20010904/DTD/svg10.dtd">
<svg version="1.0" xmlns="http://www.w3.org/2000/svg"
 width="512.000000pt" height="512.000000pt" viewBox="0 0 512.000000 512.000000"
 preserveAspectRatio="xMidYMid meet">

<g transform="translate(0.000000,512.000000) scale(0.100000,-0.100000)"
fill="#000000" stroke="none">
<path d="M822 5008 l3 -113 75 0 75 0 3 113 3 112 -81 0 -81 0 3 -112z"/>
<path d="M443 4997 c-29 -18 -53 -35 -53 -39 0 -5 95 -173 106 -186 1 -2 32
13 68 33 l65 36 -54 92 c-30 51 -60 93 -67 94 -7 1 -37 -13 -65 -30z"/>
<path d="M1271 5012 c-5 -9 -30 -52 -55 -94 l-45 -77 65 -36 c36 -20 67 -35
68 -33 11 14 106 181 106 187 0 8 -107 71 -121 71 -4 0 -13 -8 -18 -18z"/>
<path d="M740 4717 c-172 -59 -294 -185 -344 -356 -21 -71 -21 -211 0 -282 52
-175 188 -311 363 -363 32 -9 91 -16 141 -16 50 0 109 7 141 16 176 52 311
187 363 363 21 71 21 211 0 282 -52 176 -187 311 -363 363 -82 24 -220 21
-301 -7z m322 -160 c66 -32 151 -118 181 -184 32 -69 32 -237 0 -306 -31 -66
-115 -152 -182 -184 -50 -25 -67 -28 -161 -28 -94 0 -111 3 -161 28 -67 32
-151 118 -182 184 -18 40 -22 66 -22 153 0 125 17 171 91 250 88 94 155 121
290 117 74 -2 100 -8 146 -30z"/>
<path d="M122 4674 c-18 -32 -31 -61 -30 -66 2 -5 45 -33 95 -63 l92 -54 36
65 c20 36 35 67 33 68 -13 11 -180 106 -186 106 -4 0 -22 -25 -40 -56z"/>
<path d="M1545 4680 c-44 -27 -84 -51 -89 -53 -5 -2 7 -33 28 -69 l37 -66 91
51 c49 29 92 57 95 63 5 14 -59 124 -72 123 -5 0 -46 -23 -90 -49z"/>
<path d="M0 4220 l0 -81 113 3 112 3 0 75 0 75 -112 3 -113 3 0 -81z"/>
<path d="M1574 4286 c-3 -7 -4 -42 -2 -77 l3 -64 113 -3 112 -3 0 81 0 80
-110 0 c-84 0 -112 -3 -116 -14z"/>
<path d="M185 3895 c-49 -30 -90 -60 -90 -67 0 -17 58 -118 67 -118 6 0 173
95 186 106 4 2 -68 135 -71 133 -1 0 -42 -25 -92 -54z"/>
<path d="M1484 3883 c-19 -35 -34 -66 -32 -67 14 -11 181 -106 186 -106 12 1
73 112 69 124 -3 6 -46 34 -95 63 l-91 51 -37 -65z"/>
<path d="M445 3582 c-27 -48 -51 -91 -53 -97 -3 -11 95 -70 116 -70 7 0 37 41
67 92 l54 92 -64 35 c-35 20 -65 36 -67 36 -1 0 -25 -39 -53 -88z"/>
<path d="M1233 3634 l-62 -35 54 -92 c30 -50 58 -93 63 -95 14 -4 123 61 120
73 -5 17 -103 185 -108 185 -3 -1 -33 -17 -67 -36z"/>
<path d="M827 3544 c-4 -4 -7 -56 -7 -116 l0 -108 80 0 81 0 -3 113 -3 112
-70 3 c-39 1 -74 0 -78 -4z"/>
<path d="M1965 3163 c-251 -34 -457 -109 -641 -232 -142 -95 -134 -81 -79
-145 26 -31 51 -56 55 -56 4 0 13 7 20 15 6 8 46 36 88 63 238 152 492 222
762 208 324 -16 596 -135 831 -363 158 -153 267 -325 329 -520 59 -184 60
-199 60 -974 l0 -709 -418 0 -418 0 -24 58 c-32 78 -108 152 -183 180 -32 12
-68 22 -81 22 -13 0 -38 3 -55 6 l-31 7 0 112 0 112 78 16 c193 42 366 179
457 362 54 110 65 174 65 388 l0 189 -87 -7 c-199 -15 -364 -90 -477 -215 -21
-23 -39 -40 -40 -38 -1 1 -10 30 -20 63 -34 113 -84 194 -175 285 -134 133
-257 188 -445 197 l-109 6 6 -189 c7 -214 18 -269 77 -390 50 -102 145 -207
243 -268 74 -46 205 -96 251 -96 l26 0 0 -265 0 -264 -35 -6 c-19 -3 -52 -8
-72 -11 -101 -16 -208 -112 -242 -216 l-13 -38 -419 0 -419 0 0 709 c0 767 1
788 56 963 50 160 150 338 254 451 l49 54 -54 53 -54 54 -43 -49 c-161 -180
-285 -427 -333 -660 -28 -136 -34 -317 -35 -957 l0 -618 -75 0 -75 0 0 -225 0
-225 1850 0 1850 0 0 75 0 75 -1770 0 -1770 0 0 75 0 75 2145 0 2145 0 0 -75
0 -75 -150 0 -150 0 0 -75 0 -75 225 0 225 0 0 225 0 225 -74 0 -75 0 -4 737
c-3 717 -4 741 -25 835 -67 293 -188 515 -397 723 -208 209 -429 330 -723 397
-96 22 -110 22 -962 24 -476 1 -878 0 -895 -3z m1755 -158 c281 -43 520 -164
720 -365 215 -215 338 -473 374 -782 l6 -48 -640 0 -640 0 0 33 c0 17 -7 73
-15 122 -67 417 -317 782 -685 1004 l-85 51 435 0 c331 0 458 -4 530 -15z
m-1985 -1019 c87 -41 163 -107 217 -190 57 -88 78 -167 78 -293 l0 -105 -37 7
c-61 11 -176 71 -230 119 -113 102 -167 222 -178 400 l-8 109 42 -6 c23 -3 75
-21 116 -41z m895 -349 c0 -65 -6 -123 -16 -158 -52 -175 -188 -311 -363 -363
-29 -9 -58 -13 -63 -9 -14 8 0 191 19 257 39 133 135 253 252 315 53 28 129
56 164 60 4 1 7 -45 7 -102z m1480 -242 l0 -265 -280 0 -280 0 0 265 0 265
280 0 280 0 0 -265z m710 0 l0 -265 -280 0 -280 0 0 265 0 265 280 0 280 0 0
-265z m-710 -680 l0 -265 -280 0 -280 0 0 265 0 265 280 0 280 0 0 -265z m710
0 l0 -265 -280 0 -280 0 0 265 0 265 280 0 280 0 0 -265z m-2513 -173 c36 -19
83 -67 83 -86 0 -3 -126 -6 -280 -6 -154 0 -280 3 -280 6 0 16 45 66 73 81 51
27 94 32 232 29 110 -2 136 -6 172 -24z"/>
<path d="M2334 2787 c-3 -8 -4 -43 -2 -78 l3 -64 75 0 75 0 0 75 0 75 -73 3
c-55 2 -74 -1 -78 -11z"/>
<path d="M2634 2637 c-3 -8 -4 -43 -2 -78 l3 -64 75 0 75 0 0 75 0 75 -73 3
c-55 2 -74 -1 -78 -11z"/>
<path d="M4370 75 l0 -75 75 0 75 0 0 75 0 75 -75 0 -75 0 0 -75z"/>
</g>
</svg>
