<?xml version="1.0" standalone="no"?>
<!DOCTYPE svg PUBLIC "-//W3C//DTD SVG 20010904//EN"
 "http://www.w3.org/TR/2001/REC-SVG-20010904/DTD/svg10.dtd">
<svg version="1.0" xmlns="http://www.w3.org/2000/svg"
 width="512.000000pt" height="512.000000pt" viewBox="0 0 512.000000 512.000000"
 preserveAspectRatio="xMidYMid meet">

<g transform="translate(0.000000,512.000000) scale(0.100000,-0.100000)"
fill="#000000" stroke="none">
<path d="M1749 5098 c-25 -14 -52 -46 -84 -100 -183 -307 -484 -511 -835 -564
-52 -7 -119 -14 -148 -14 -72 0 -126 -29 -152 -81 -21 -40 -21 -46 -17 -952 4
-973 3 -965 56 -1224 171 -834 722 -1566 1475 -1959 188 -98 457 -204 517
-204 50 0 276 87 454 175 413 203 752 487 1031 862 245 328 423 727 504 1125
53 260 53 251 57 1226 l4 912 -23 41 c-29 52 -80 79 -150 79 -186 0 -434 75
-604 183 -142 89 -287 241 -379 395 -80 134 8 122 -896 122 -769 0 -774 -1
-810 -22z m1514 -355 c114 -164 281 -318 453 -419 156 -92 376 -169 537 -189
l58 -7 -4 -817 c-3 -773 -4 -823 -24 -947 -82 -506 -277 -929 -603 -1309 -256
-298 -613 -549 -995 -701 l-120 -47 -65 23 c-374 131 -775 402 -1038 700 -345
391 -552 843 -633 1385 -8 55 -13 332 -16 895 l-4 815 99 17 c377 65 727 285
947 598 l56 80 649 0 648 0 55 -77z"/>
<path d="M2073 4502 c-17 -9 -63 -53 -101 -97 -171 -196 -405 -358 -667 -461
-66 -26 -131 -57 -144 -68 -51 -45 -51 -43 -51 -664 0 -333 5 -625 11 -688 77
-790 561 -1483 1279 -1828 142 -68 178 -69 312 -4 728 349 1213 1042 1287
1838 6 66 11 360 11 688 0 615 0 613 -51 658 -13 11 -78 42 -144 67 -251 97
-527 291 -680 477 -87 106 -55 100 -577 100 -408 -1 -456 -3 -485 -18z m902
-353 c94 -96 226 -206 338 -281 91 -61 272 -159 355 -191 l42 -17 0 -510 c0
-291 -5 -553 -11 -608 -73 -676 -474 -1257 -1076 -1561 l-63 -31 -60 30 c-611
308 -1012 894 -1080 1575 -7 69 -10 297 -8 608 l3 497 100 45 c211 95 408 231
588 406 l112 108 345 1 346 0 69 -71z"/>
<path d="M3221 3180 c-27 -6 -122 -96 -462 -436 l-429 -429 -187 187 c-227
225 -255 241 -350 199 -67 -31 -100 -115 -72 -188 5 -15 121 -140 257 -277
268 -270 299 -293 375 -281 39 7 75 40 540 504 531 529 528 525 512 607 -8 44
-71 114 -103 114 -11 0 -26 2 -34 4 -7 2 -28 0 -47 -4z"/>
</g>
</svg>
