<?xml version="1.0" standalone="no"?>
<!DOCTYPE svg PUBLIC "-//W3C//DTD SVG 20010904//EN"
 "http://www.w3.org/TR/2001/REC-SVG-20010904/DTD/svg10.dtd">
<svg version="1.0" xmlns="http://www.w3.org/2000/svg"
 width="512.000000pt" height="512.000000pt" viewBox="0 0 512.000000 512.000000"
 preserveAspectRatio="xMidYMid meet">

<g transform="translate(0.000000,512.000000) scale(0.100000,-0.100000)"
fill="#000000" stroke="none">
<path d="M1645 4946 c-327 -54 -689 -225 -1020 -483 -130 -101 -155 -127 -155
-158 0 -65 215 -414 369 -597 44 -53 127 -140 183 -193 l103 -97 -79 -77
c-241 -233 -392 -506 -468 -843 -20 -92 -23 -128 -23 -333 1 -201 4 -242 23
-325 37 -158 69 -248 142 -395 158 -319 419 -578 739 -734 57 -28 115 -51 128
-51 37 0 65 35 61 78 -3 37 -4 38 -123 97 -66 33 -140 74 -165 91 l-45 31 -1
119 c-1 145 -19 223 -83 359 -58 122 -58 120 38 324 121 256 137 337 83 422
-33 51 -88 84 -208 123 -51 17 -90 37 -106 54 -15 15 -63 95 -108 177 -45 83
-93 164 -106 182 l-25 32 40 79 c63 126 157 257 259 364 53 55 108 108 123
119 l28 20 53 -34 c119 -77 314 -154 428 -171 108 -17 107 -8 20 -96 -143
-144 -202 -311 -167 -468 42 -183 143 -299 292 -332 75 -17 228 -13 376 10 72
11 142 20 155 20 55 0 74 -118 74 -460 0 -343 21 -465 93 -546 50 -57 98 -77
182 -72 208 10 464 253 515 490 11 48 10 77 -5 185 -23 172 -18 291 15 357 33
64 136 158 246 224 102 61 95 65 115 -68 15 -107 6 -399 -16 -500 -65 -296
-194 -531 -409 -746 -300 -299 -637 -434 -1081 -434 -168 0 -174 -1 -189 -22
-21 -30 -20 -61 3 -89 19 -24 20 -24 233 -23 197 0 222 2 333 28 495 115 892
425 1113 871 342 687 141 1535 -475 2007 l-93 71 28 20 c15 12 59 47 99 79
l72 58 63 -50 c93 -75 242 -224 313 -315 91 -117 149 -210 215 -348 196 -405
238 -844 123 -1282 -114 -438 -388 -821 -774 -1080 -107 -73 -317 -175 -439
-214 -216 -70 -372 -94 -595 -94 -317 1 -579 66 -865 214 -271 141 -527 374
-696 635 -250 386 -346 836 -278 1305 5 39 3 50 -15 68 -29 29 -86 29 -105 -1
-34 -53 -53 -327 -37 -513 45 -506 252 -942 612 -1290 477 -461 1140 -653
1794 -520 679 138 1255 638 1485 1290 80 229 115 435 114 690 -1 256 -37 455
-128 698 -22 58 -30 90 -22 92 135 37 360 142 482 224 227 151 368 333 425
546 31 115 31 338 0 483 -32 150 -87 309 -156 446 -82 165 -76 163 -252 105
-387 -129 -679 -344 -804 -591 -87 -172 -112 -436 -62 -648 4 -19 -19 0 -98
76 -57 55 -142 129 -189 163 -71 53 -90 74 -121 130 -79 145 -215 347 -282
419 -36 38 -77 42 -107 12 -34 -34 -25 -65 51 -166 71 -95 201 -295 195 -301
-5 -6 -630 118 -637 125 -4 4 -141 189 -304 412 l-297 405 40 3 c21 2 81 -6
133 -16 174 -36 316 -104 493 -236 49 -36 94 -66 102 -66 19 0 61 42 69 68 21
73 -333 294 -570 358 -83 22 -126 27 -255 30 -98 2 -184 -2 -235 -10z m332
-516 c153 -209 279 -384 281 -389 2 -7 -536 93 -543 101 -18 21 -398 543 -401
552 -7 19 143 70 321 109 60 14 52 23 342 -373z m-633 -20 c91 -123 164 -226
162 -227 -2 -3 -773 146 -796 153 -18 6 -8 15 140 116 122 84 299 187 317 185
7 -1 87 -103 177 -227z m3183 208 c-33 -87 -311 -745 -316 -751 -4 -4 -51 99
-105 229 l-97 237 23 24 c57 61 236 169 398 239 82 36 105 41 97 22z m213
-226 c42 -127 67 -236 72 -320 l3 -54 -229 -95 c-125 -52 -229 -93 -231 -91
-1 2 68 171 153 376 l156 372 19 -35 c10 -20 36 -89 57 -153z m-721 -453 l112
-271 -97 -231 c-53 -128 -100 -236 -104 -240 -10 -11 -74 143 -105 252 -66
228 -70 427 -14 595 21 60 78 166 90 166 3 0 57 -122 118 -271z m-2939 181
c201 -39 373 -74 382 -78 13 -5 -36 -46 -202 -167 -121 -88 -224 -161 -229
-163 -20 -7 -239 282 -330 437 -31 52 -31 53 -9 48 13 -3 187 -38 388 -77z
m876 -170 c142 -28 267 -54 276 -58 14 -5 -69 -71 -354 -279 l-372 -272 -66
35 c-76 42 -195 126 -264 187 l-48 42 268 197 c148 108 276 197 285 198 9 0
132 -23 275 -50z m2854 -97 c0 -5 -7 -37 -15 -72 -58 -243 -301 -471 -655
-615 -35 -14 -67 -26 -71 -26 -11 0 198 494 213 503 15 10 509 215 521 216 4
1 7 -2 7 -6z m-2060 -58 c157 -30 296 -58 310 -61 l25 -6 -25 -19 c-63 -49
-264 -180 -345 -226 -171 -95 -352 -167 -515 -204 -153 -36 -417 -35 -512 0
-15 5 68 70 364 288 211 155 390 282 398 283 8 0 143 -25 300 -55z m268 -407
c213 -147 409 -387 513 -628 58 -134 58 -123 -8 -161 -196 -110 -323 -225
-377 -339 -27 -58 -31 -77 -34 -177 -3 -72 2 -156 13 -231 13 -96 14 -127 5
-163 -59 -220 -354 -446 -450 -344 -44 47 -52 106 -60 475 -8 372 -16 427 -66
503 -54 82 -97 90 -316 57 -188 -28 -308 -27 -374 4 -91 43 -147 144 -148 266
0 64 5 85 33 144 39 80 133 181 231 246 36 23 74 50 85 60 11 9 62 24 117 33
190 33 472 145 668 265 36 22 71 41 78 41 8 1 48 -23 90 -51z m-2178 -981 c60
-109 108 -170 151 -193 16 -8 68 -28 116 -45 112 -40 133 -54 133 -90 0 -36
-33 -121 -103 -269 -108 -230 -114 -279 -43 -415 48 -93 70 -167 81 -270 l6
-60 -89 91 c-181 186 -303 416 -369 694 -45 192 -43 477 4 668 l16 63 22 -38
c12 -21 46 -82 75 -136z"/>
</g>
</svg>
